<?xml version="1.0" encoding="utf-8"?>
<!-- Generator: Adobe Illustrator 25.1.0, SVG Export Plug-In . SVG Version: 6.00 Build 0)  -->
<svg version="1.1" id="Layer_1" xmlns="http://www.w3.org/2000/svg" xmlns:xlink="http://www.w3.org/1999/xlink" x="0px" y="0px"
	 viewBox="0 0 702.07 298.28" style="enable-background:new 0 0 702.07 298.28;" xml:space="preserve">
<style type="text/css">
	.st0{fill:#FFFFFF;}
	.st1{fill:#A41034;}
</style>
<g>
	<g>
		<path class="st0" d="M682.2,182.5c-12.74,0-20.14-5.6-20.6-15.81h12.2c0.54,4.25,2.62,6.69,8.31,6.69c5.06,0,7.41-1.9,7.41-5.15
			s-2.8-4.61-9.58-5.6c-12.56-1.9-17.43-5.51-17.43-14.72c0-9.85,9.03-14.72,18.7-14.72c10.48,0,18.34,3.79,19.51,14.63H688.7
			c-0.72-3.88-2.89-5.69-7.41-5.69c-4.25,0-6.69,1.99-6.69,4.88c0,2.98,2.26,4.15,9.12,5.15c11.83,1.72,18.34,4.7,18.34,14.81
			C702.07,177.17,694.66,182.5,682.2,182.5 M636.13,182.5c-12.74,0-20.14-5.6-20.6-15.81h12.2c0.54,4.25,2.62,6.69,8.31,6.69
			c5.06,0,7.41-1.9,7.41-5.15s-2.8-4.61-9.58-5.6c-12.56-1.9-17.43-5.51-17.43-14.72c0-9.85,9.03-14.72,18.7-14.72
			c10.48,0,18.34,3.79,19.51,14.63h-12.02c-0.72-3.88-2.89-5.69-7.41-5.69c-4.25,0-6.69,1.99-6.69,4.88c0,2.98,2.26,4.15,9.12,5.15
			c11.83,1.72,18.34,4.7,18.34,14.81C656,177.17,648.59,182.5,636.13,182.5 M574.65,152.78h21.14c-0.45-7.14-4.07-10.57-10.3-10.57
			C579.62,142.21,575.65,146.09,574.65,152.78 M585.86,182.5c-14.27,0-24.66-8.94-24.66-24.03v-0.72c0-14.91,10.57-24.57,24.3-24.57
			c12.2,0,23.04,7.14,23.04,24.03v3.61h-34.06c0.36,7.86,4.61,12.38,11.74,12.38c6.05,0,9.03-2.62,9.85-6.59h12.38
			C606.9,176.81,598.77,182.5,585.86,182.5 M509.03,181.51v-47.25h13.1v7.5c2.35-4.7,7.5-8.58,15.36-8.58c9.3,0,15.9,5.6,15.9,18.25
			v30.08h-13.1v-28.18c0-6.41-2.53-9.49-8.31-9.49c-5.6,0-9.85,3.43-9.85,10.39v27.28L509.03,181.51L509.03,181.51z M484.82,134.26
			h13.01v47.25h-13.01V134.26z M491.23,127.85c-4.16,0-7.41-3.07-7.41-7.14s3.25-7.14,7.41-7.14c4.25,0,7.5,3.07,7.5,7.14
			S495.48,127.85,491.23,127.85 M456.32,182.5c-12.74,0-20.15-5.6-20.6-15.81h12.2c0.54,4.25,2.62,6.69,8.31,6.69
			c5.06,0,7.41-1.9,7.41-5.15s-2.8-4.61-9.58-5.6c-12.56-1.9-17.44-5.51-17.44-14.72c0-9.85,9.03-14.72,18.7-14.72
			c10.48,0,18.34,3.79,19.51,14.63h-12.01c-0.72-3.88-2.89-5.69-7.41-5.69c-4.25,0-6.68,1.99-6.68,4.88c0,2.98,2.26,4.15,9.12,5.15
			c11.83,1.72,18.34,4.7,18.34,14.81C476.19,177.17,468.78,182.5,456.32,182.5 M399.63,182.5c-9.21,0-16.08-5.42-16.08-17.8v-30.44
			h13.01v28.64c0,6.41,2.62,9.49,8.22,9.49c5.51,0,9.85-3.43,9.85-10.39v-27.73h13.01v47.25h-13.01v-7.41
			C412.19,178.89,407.4,182.5,399.63,182.5 M334.81,171.39h14.63c7.23,0,10.48-3.25,10.48-9.12v-0.36c0-5.96-3.25-9.03-11.2-9.03
			h-13.91V171.39z M334.81,143.47h13.37c7.05,0,9.85-2.53,9.85-8.31v-0.36c0-5.42-3.07-7.86-9.94-7.86h-13.28V143.47z
			 M320.53,181.51v-64.59h29.99c14.09,0,21.41,5.78,21.41,16.8v0.36c0,6.78-3.25,11.74-10.48,13.82c8.4,1.72,12.92,6.5,12.92,15.18
			v0.36c0,11.83-7.77,18.07-22.67,18.07L320.53,181.51L320.53,181.51z"/>
		<g>
			<path class="st0" d="M540.54,82.98c5.78,0,10.21-3.16,10.21-8.4V70.6h-5.06c-7.59,0-12.02,1.63-12.02,6.69
				C533.67,80.72,535.75,82.98,540.54,82.98 M536.65,92.1c-8.58,0-15.81-4.16-15.81-14.09c0-11.02,10.12-15.18,24.57-15.18h5.33
				v-1.9c0-5.6-1.72-8.67-7.68-8.67c-5.15,0-7.5,2.62-8.04,6.68h-12.38c0.81-11.2,9.67-16.17,21.23-16.17s19.78,4.7,19.78,17.53
				v30.8h-12.74v-5.69C548.21,89.21,544.06,92.1,536.65,92.1 M486.4,91.11l-17.25-47.25h14l11.29,33.79l11.2-33.79h12.65
				l-17.16,47.25H486.4z M402.6,82.98c5.78,0,10.21-3.16,10.21-8.4V70.6h-5.06c-7.59,0-12.01,1.63-12.01,6.69
				C395.73,80.72,397.81,82.98,402.6,82.98 M398.71,92.1c-8.58,0-15.81-4.16-15.81-14.09c0-11.02,10.12-15.18,24.57-15.18h5.33v-1.9
				c0-5.6-1.72-8.67-7.68-8.67c-5.15,0-7.5,2.62-8.04,6.68H384.7c0.81-11.2,9.67-16.17,21.23-16.17s19.78,4.7,19.78,17.53v30.8
				h-12.74v-5.69C410.28,89.21,406.12,92.1,398.71,92.1 M320.53,91.11V26.52h14.63V52.9h23.76V26.52h14.63v64.59h-14.63V64.46
				h-23.76v26.65H320.53z"/>
			<polygon class="st0" points="486.4,91.15 501.14,91.15 518.32,43.87 505.66,43.87 494.45,77.69 483.15,43.87 469.14,43.87 			"/>
			<path class="st0" d="M464.4,43.2c-7.15,0.33-11.55,3.63-14.42,9.71v-9.04h-13.11v47.29h13.11v-23.7c0-8.77,5.28-12,14.42-12.11
				V43.2z"/>
			<path class="st0" d="M602.29,43.2c-7.13,0.34-11.52,3.64-14.38,9.71v-9.04H574.8v47.29h13.11v-23.7
				c0-8.75,5.27-11.99,14.38-12.11V43.2z"/>
			<path class="st0" d="M630.69,81.93c-6.51,0-11.03-4.61-11.03-14.02v-0.72c0-9.4,4.07-14.38,11.39-14.38
				c7.14,0,11.3,4.79,11.3,14.2v0.72C642.36,77.32,637.57,81.93,630.69,81.93 M626.81,92.15c6.96,0,12.75-4.07,15.19-8.86v7.87
				h13.02V22.43H642v28.48c-2.62-4.79-7.32-8.14-14.92-8.14c-11.85,0-20.8,9.13-20.8,24.69v0.72
				C606.28,83.92,615.32,92.15,626.81,92.15"/>
		</g>
		<path class="st0" d="M601.38,203.11h13.01v68.65h-13.01V203.11z M568.63,262.82c7.32,0,11.56-5.42,11.56-14.36v-0.63
			c0-9.03-4.25-14.45-11.56-14.45c-7.23,0-11.56,5.24-11.56,14.27v0.72C557.07,257.4,561.23,262.82,568.63,262.82 M568.54,272.75
			c-14.09,0-24.84-9.4-24.84-24.12v-0.72c0-14.82,10.75-24.48,24.93-24.48s24.84,9.48,24.84,24.21v0.72
			C593.48,263.27,582.73,272.75,568.54,272.75 M512.8,262.82c7.32,0,11.56-5.42,11.56-14.36v-0.63c0-9.03-4.25-14.45-11.56-14.45
			c-7.23,0-11.56,5.24-11.56,14.27v0.72C501.24,257.4,505.4,262.82,512.8,262.82 M512.71,272.75c-14.09,0-24.84-9.4-24.84-24.12
			v-0.72c0-14.82,10.75-24.48,24.93-24.48c14.18,0,25.04,9.48,25.04,24.21v0.72C537.85,263.27,526.9,272.75,512.71,272.75
			 M436.15,271.76v-68.65h13.1v28.91c2.35-4.7,7.5-8.58,15.36-8.58c9.3,0,15.9,5.6,15.9,18.25v30.08h-13.1v-28.18
			c0-6.41-2.53-9.48-8.31-9.48c-5.6,0-9.85,3.43-9.85,10.39v27.28h-13.1V271.76z M405.69,272.75c-13.82,0-24.3-8.58-24.3-24.03V248
			c0-15.27,10.93-24.57,24.39-24.57c10.93,0,21.05,4.79,22.22,18.34h-12.38c-0.9-5.51-4.25-8.04-9.58-8.04
			c-6.78,0-11.29,5.06-11.29,14.09v0.72c0,9.49,4.25,14.36,11.56,14.36c5.24,0,9.48-3.07,10.12-9.12h11.83
			C427.55,264.99,419.42,272.75,405.69,272.75 M348.13,272.66c-19.06,0-27.64-8.31-28.73-21.05h14.09
			c0.9,5.87,3.7,10.39,14.63,10.39c8.58,0,12.2-3.16,12.2-8.58c0-5.6-3.43-7.23-14.45-8.76c-17.25-2.44-25.02-7.14-25.02-19.42
			c0-10.93,9.49-18.97,25.2-18.97c15.81,0,25.29,6.23,26.65,19.06h-13.64c-1.26-5.6-5.33-8.31-12.92-8.31
			c-8.04,0-11.38,2.71-11.38,7.23c-0.09,4.61,2.62,6.96,14.09,8.4c16.62,2.08,25.57,6.05,25.57,19.6
			C374.42,263.99,365.75,272.66,348.13,272.66"/>
	</g>
	<rect x="264.68" class="st0" width="5.65" height="298.28"/>
	<g>
		<path class="st0" d="M107.23,280.64l-2-1.28C37.37,236.18,0,170.64,0,94.82V26.51h214.46v68.31
			c0,75.82-37.37,141.36-105.23,184.55L107.23,280.64z"/>
		<g>
			<polygon class="st1" points="208.79,98.55 208.79,32.18 5.66,32.18 5.66,98.55 5.66,98.55 			"/>
		</g>
		<g>
			<path class="st0" d="M169.9,86.72c-1.27,0-2.43-0.66-3.1-1.76l-0.21-0.34h-22.66V77.4h-2.81c-1.21,0-2.19-0.98-2.19-2.19
				s0.98-2.2,2.19-2.2h2.81V57.52h-2.81c-1.21,0-2.19-0.99-2.19-2.2s0.98-2.2,2.19-2.2h2.81v-6.66H163c2.58,0,4.91,1.4,6.09,3.65
				l0.64,1.22l0.64-1.21c1.18-2.25,3.52-3.65,6.1-3.65h18.81v6.66h2.82c1.21,0,2.19,0.99,2.19,2.2s-0.98,2.2-2.19,2.2h-2.82v15.49
				h2.82c1.21,0,2.19,0.99,2.19,2.2s-0.98,2.19-2.19,2.19h-2.82v7.21h-22.07L173,84.96C172.32,86.06,171.17,86.72,169.9,86.72z"/>
			<path class="st0" d="M107.23,86.72c-1.27,0-2.43-0.66-3.1-1.76l-0.21-0.34H81.68V77.4h-2.81c-1.21,0-2.19-0.98-2.19-2.19
				s0.98-2.2,2.19-2.2h2.81V57.52h-2.81c-1.21,0-2.19-0.99-2.19-2.2s0.98-2.2,2.19-2.2h2.81v-6.66h18.65c2.68,0,5.13,1.58,6.25,4.02
				l0.65,1.43l0.65-1.43c1.12-2.44,3.57-4.02,6.25-4.02h14.84v6.66h2.81c1.21,0,2.19,0.99,2.19,2.2s-0.98,2.2-2.19,2.2h-2.81v15.49
				h2.81c1.21,0,2.19,0.99,2.19,2.2s-0.98,2.19-2.19,2.19h-2.81v7.21h-18.43l-0.21,0.34C109.66,86.06,108.5,86.72,107.23,86.72z"/>
			<path class="st0" d="M42.92,86.72c-1.27,0-2.43-0.66-3.1-1.76l-0.21-0.34H18.99V77.4h-2.81c-1.21,0-2.19-0.98-2.19-2.19
				s0.98-2.2,2.19-2.2h2.81V57.52h-2.81c-1.21,0-2.19-0.99-2.19-2.2s0.98-2.2,2.19-2.2h2.81v-6.66h17.04c2.68,0,5.13,1.58,6.24,4.02
				l0.65,1.43l0.65-1.43c1.12-2.44,3.57-4.02,6.25-4.02h17.04v6.66h2.81c1.21,0,2.19,0.99,2.19,2.2s-0.98,2.2-2.19,2.2h-2.81v15.49
				h2.81c1.21,0,2.19,0.99,2.19,2.2s-0.98,2.19-2.19,2.19h-2.81v7.21H46.23l-0.21,0.34C45.35,86.06,44.19,86.72,42.92,86.72z"/>
		</g>
		<path class="st0" d="M59.32,78.25L59.32,78.25L59.32,78.25z"/>
		<polygon class="st0" points="89.23,78.25 89.23,78.25 89.22,78.25 		"/>
		<g>
			<path d="M148.76,101.36c0,6.08-4.93,11-11,11c-2.58,0-4.94-0.89-6.82-2.38c1.49,1.88,2.39,4.25,2.39,6.84c0,6.08-4.93,11-11,11
				c-2.65,0-5.08-0.94-6.98-2.5c1.45,1.79,2.32,4.07,2.32,6.56c0,5.77-4.68,10.44-10.44,10.44c-5.77,0-10.44-4.68-10.44-10.44
				c0-2.48,0.87-4.76,2.32-6.56c-1.9,1.56-4.33,2.5-6.98,2.5c-6.08,0-11-4.93-11-11c0-2.59,0.9-4.96,2.39-6.84
				c-1.88,1.48-4.24,2.38-6.82,2.38c-6.08,0-11-4.93-11-11c0-0.97,0.13-1.91,0.37-2.81H11.6c3.8,1.73,6.45,5.56,6.45,10.01
				c0,2.58-0.89,4.94-2.38,6.82c1.88-1.49,4.25-2.39,6.84-2.39c6.08,0,11,4.93,11,11c0,2.58-0.89,4.94-2.38,6.82
				c1.88-1.49,4.25-2.39,6.84-2.39c6.08,0,11,4.93,11,11c0,2.58-0.89,4.94-2.38,6.82c1.88-1.49,4.25-2.39,6.84-2.39
				c6.08,0,11,4.93,11,11c0,2.65-0.94,5.08-2.5,6.98c1.79-1.45,4.07-2.32,6.56-2.32c5.77,0,10.44,4.68,10.44,10.44
				c0,5.77-4.68,10.44-10.44,10.44c-2.48,0-4.76-0.87-6.56-2.32c1.56,1.9,2.5,4.33,2.5,6.98c0,6.08-4.93,11-11,11
				c-2.59,0-4.96-0.9-6.84-2.39c1.48,1.88,2.38,4.24,2.38,6.82c0,4.95-3.27,9.13-7.77,10.51c7.23,10.52,15.52,20.48,24.82,29.83
				c-0.22-0.87-0.35-1.77-0.35-2.71c0-6.08,4.93-11,11-11c2.58,0,4.94,0.89,6.82,2.38c-1.49-1.88-2.39-4.25-2.39-6.84
				c0-6.08,4.93-11,11-11c2.65,0,5.08,0.94,6.98,2.5c-1.45-1.79-2.32-4.07-2.32-6.56c0-5.77,4.68-10.44,10.44-10.44
				c5.77,0,10.44,4.68,10.44,10.44c0,2.48-0.87,4.76-2.32,6.56c1.9-1.56,4.33-2.5,6.98-2.5c6.08,0,11,4.93,11,11
				c0,2.59-0.9,4.96-2.39,6.84c1.88-1.48,4.24-2.38,6.82-2.38c6.08,0,11,4.93,11,11c0,0.94-0.13,1.84-0.35,2.71
				c9.31-9.35,17.6-19.32,24.82-29.83c-4.5-1.38-7.77-5.56-7.77-10.51c0-2.58,0.89-4.94,2.38-6.82c-1.88,1.49-4.25,2.39-6.84,2.39
				c-6.08,0-11-4.93-11-11c0-2.65,0.94-5.08,2.5-6.98c-1.79,1.45-4.07,2.32-6.56,2.32c-5.77,0-10.44-4.68-10.44-10.44
				c0-5.77,4.68-10.44,10.44-10.44c2.48,0,4.76,0.87,6.56,2.32c-1.56-1.9-2.5-4.33-2.5-6.98c0-6.08,4.93-11,11-11
				c2.59,0,4.96,0.9,6.84,2.39c-1.48-1.88-2.38-4.24-2.38-6.82c0-6.08,4.93-11,11-11c2.59,0,4.96,0.9,6.84,2.39
				c-1.48-1.88-2.38-4.24-2.38-6.82c0-6.08,4.93-11,11-11c2.59,0,4.96,0.9,6.84,2.39c-1.48-1.88-2.38-4.24-2.38-6.82
				c0-4.45,2.65-8.28,6.45-10.01h-54.46C148.63,99.45,148.76,100.39,148.76,101.36z M70.4,118.64c0.27-0.42,1.07-0.28,1.62-0.28
				c0.82,0,1.24-0.06,1.49,0.41c0.31,0.58-0.19,1.19-0.59,2.42c-0.32,0.99-0.41,1.86-0.79,1.86c-0.49,0-0.89-0.85-1.29-1.92
				C70.49,120.17,70.09,119.12,70.4,118.64z M58.56,118.76c0.25-0.47,0.67-0.41,1.49-0.41c0.56,0,1.36-0.13,1.62,0.28
				c0.31,0.49-0.09,1.53-0.46,2.49c-0.4,1.06-0.79,1.92-1.29,1.92c-0.38,0-0.47-0.88-0.79-1.86
				C58.76,119.96,58.26,119.34,58.56,118.76z M76.15,132.86c-0.6,0-2-1.33-3.2-2.68c-1.13-1.27-1.92-3.09-2.39-2.51
				c-0.46,0.57,0.64,2.43,1.6,3.83c1.42,2.07,2.72,2.74,2.72,3.74c0,0.74-0.75,1.56-1.38,2.14c-0.64,0.6-1.32,1.06-2,1.06
				c-0.83,0-1.91-1.95-2.67-5.19c-0.5-2.15-0.34-3.46-0.92-3.46c-0.44,0-0.71,1.04-0.62,2.92c0.09,2.04,0.35,3.19,1.02,5.22
				c0.31,0.93,0.75,1.63,0.19,2.17c-0.54,0.51-1.45,0.75-2.47,0.75c-1.02,0-1.93-0.23-2.47-0.75c-0.56-0.54-0.12-1.24,0.19-2.17
				c0.67-2.03,0.93-3.18,1.02-5.22c0.09-1.88-0.18-2.92-0.62-2.92c-0.58,0-0.42,1.31-0.92,3.46c-0.75,3.23-1.84,5.19-2.67,5.19
				c-0.68,0-1.36-0.46-2-1.06c-0.63-0.59-1.38-1.41-1.38-2.14c0-1,1.3-1.66,2.72-3.74c0.96-1.4,2.07-3.26,1.6-3.83
				c-0.47-0.58-1.26,1.24-2.39,2.51c-1.2,1.35-2.6,2.68-3.2,2.68c-0.69,0-1.9-2.19-1.9-3.77s0.68-2.58,2.05-2.58
				c5.85,0,6.75-5.8,7.29-8.12c0.43-1.83,0.83-3.47,2.68-3.47s2.25,1.64,2.68,3.47c0.54,2.32,1.44,8.12,7.29,8.12
				c1.36,0,2.05,1,2.05,2.58C78.05,130.68,76.84,132.86,76.15,132.86z M70.4,200.17c0.27-0.42,1.07-0.28,1.62-0.28
				c0.82,0,1.24-0.06,1.49,0.41c0.31,0.58-0.19,1.19-0.59,2.42c-0.32,0.99-0.41,1.86-0.79,1.86c-0.49,0-0.89-0.85-1.29-1.92
				C70.49,201.7,70.09,200.65,70.4,200.17z M58.56,200.29c0.25-0.47,0.67-0.41,1.49-0.41c0.56,0,1.36-0.13,1.62,0.28
				c0.31,0.49-0.09,1.53-0.46,2.49c-0.4,1.06-0.79,1.92-1.29,1.92c-0.38,0-0.47-0.88-0.79-1.86
				C58.76,201.48,58.26,200.87,58.56,200.29z M76.15,214.39c-0.6,0-2-1.33-3.2-2.68c-1.13-1.27-1.92-3.09-2.39-2.51
				c-0.46,0.57,0.64,2.43,1.6,3.83c1.42,2.07,2.72,2.74,2.72,3.74c0,0.74-0.75,1.56-1.38,2.14c-0.64,0.6-1.32,1.06-2,1.06
				c-0.83,0-1.91-1.95-2.67-5.19c-0.5-2.15-0.34-3.46-0.92-3.46c-0.44,0-0.71,1.04-0.62,2.92c0.09,2.04,0.35,3.19,1.02,5.22
				c0.31,0.93,0.75,1.63,0.19,2.17c-0.54,0.51-1.45,0.75-2.47,0.75c-1.02,0-1.93-0.23-2.47-0.75c-0.56-0.54-0.12-1.24,0.19-2.17
				c0.67-2.03,0.93-3.18,1.02-5.22c0.09-1.88-0.18-2.92-0.62-2.92c-0.58,0-0.42,1.31-0.92,3.46c-0.75,3.23-1.84,5.19-2.67,5.19
				c-0.68,0-1.36-0.46-2-1.06c-0.63-0.59-1.38-1.41-1.38-2.14c0-1,1.3-1.66,2.72-3.74c0.96-1.4,2.07-3.26,1.6-3.83
				c-0.47-0.58-1.26,1.24-2.39,2.51c-1.2,1.35-2.6,2.68-3.2,2.68c-0.69,0-1.9-2.19-1.9-3.77s0.68-2.58,2.05-2.58
				c5.85,0,6.75-5.8,7.29-8.12c0.43-1.83,0.83-3.47,2.68-3.47s2.25,1.64,2.68,3.47c0.54,2.32,1.44,8.12,7.29,8.12
				c1.36,0,2.05,1,2.05,2.58S76.84,214.39,76.15,214.39z M111.81,158.12c0.28-0.44,1.12-0.3,1.71-0.3c0.86,0,1.3-0.06,1.57,0.43
				c0.32,0.61-0.2,1.25-0.62,2.54c-0.33,1.04-0.43,1.96-0.83,1.96c-0.52,0-0.93-0.9-1.35-2.01
				C111.9,159.73,111.48,158.63,111.81,158.12z M99.38,158.26c0.26-0.5,0.71-0.43,1.57-0.43c0.59,0,1.43-0.14,1.71,0.3
				c0.32,0.51-0.1,1.61-0.48,2.62c-0.42,1.12-0.83,2.01-1.35,2.01c-0.4,0-0.5-0.92-0.83-1.96
				C99.58,159.51,99.05,158.86,99.38,158.26z M117.85,173.06c-0.63,0-2.1-1.4-3.36-2.81c-1.19-1.34-2.02-3.24-2.51-2.64
				c-0.49,0.6,0.67,2.55,1.68,4.03c1.49,2.18,2.86,2.88,2.86,3.93c0,0.77-0.79,1.63-1.45,2.25c-0.67,0.63-1.39,1.11-2.1,1.11
				c-0.87,0-2.01-2.05-2.8-5.45c-0.53-2.25-0.35-3.63-0.96-3.63c-0.46,0-0.74,1.1-0.65,3.07c0.1,2.14,0.37,3.35,1.07,5.48
				c0.32,0.98,0.79,1.71,0.2,2.28c-0.57,0.54-1.53,0.78-2.6,0.78s-2.03-0.24-2.6-0.78c-0.59-0.56-0.12-1.3,0.2-2.28
				c0.7-2.13,0.97-3.34,1.07-5.48c0.09-1.97-0.19-3.07-0.65-3.07c-0.61,0-0.44,1.37-0.96,3.63c-0.79,3.4-1.93,5.45-2.8,5.45
				c-0.71,0-1.42-0.49-2.1-1.11c-0.66-0.62-1.45-1.48-1.45-2.25c0-1.05,1.36-1.75,2.86-3.93c1.01-1.47,2.17-3.42,1.68-4.03
				s-1.32,1.3-2.51,2.64c-1.26,1.42-2.73,2.81-3.36,2.81c-0.72,0-1.99-2.3-1.99-3.96s0.72-2.71,2.15-2.71
				c6.14,0,7.09-6.09,7.65-8.52c0.45-1.93,0.87-3.65,2.81-3.65c1.94,0,2.37,1.72,2.81,3.65c0.57,2.43,1.51,8.52,7.65,8.52
				c1.43,0,2.15,1.05,2.15,2.71S118.57,173.06,117.85,173.06z M152.75,200.17c0.27-0.42,1.07-0.28,1.62-0.28
				c0.82,0,1.24-0.06,1.49,0.41c0.31,0.58-0.19,1.19-0.59,2.42c-0.32,0.99-0.41,1.86-0.79,1.86c-0.49,0-0.89-0.85-1.29-1.92
				C152.84,201.7,152.44,200.65,152.75,200.17z M140.91,200.29c0.25-0.47,0.67-0.41,1.49-0.41c0.56,0,1.36-0.13,1.62,0.28
				c0.31,0.49-0.09,1.53-0.46,2.49c-0.4,1.06-0.79,1.92-1.29,1.92c-0.38,0-0.47-0.88-0.79-1.86
				C141.11,201.48,140.6,200.87,140.91,200.29z M138.42,208.04c5.85,0,6.75-5.8,7.29-8.12c0.43-1.83,0.83-3.47,2.68-3.47
				c1.85,0,2.25,1.64,2.68,3.47c0.54,2.32,1.44,8.12,7.29,8.12c1.36,0,2.05,1,2.05,2.58s-1.21,3.77-1.9,3.77c-0.6,0-2-1.33-3.2-2.68
				c-1.13-1.27-1.92-3.09-2.39-2.51c-0.46,0.57,0.64,2.43,1.6,3.83c1.42,2.07,2.72,2.74,2.72,3.74c0,0.74-0.75,1.56-1.38,2.14
				c-0.64,0.6-1.32,1.06-2,1.06c-0.83,0-1.91-1.95-2.67-5.19c-0.5-2.15-0.34-3.46-0.92-3.46c-0.44,0-0.71,1.04-0.62,2.92
				c0.09,2.04,0.35,3.19,1.02,5.22c0.31,0.93,0.75,1.63,0.19,2.17c-0.54,0.51-1.45,0.75-2.47,0.75s-1.93-0.23-2.47-0.75
				c-0.56-0.54-0.12-1.24,0.19-2.17c0.67-2.03,0.93-3.18,1.02-5.22c0.09-1.88-0.18-2.92-0.62-2.92c-0.58,0-0.42,1.31-0.92,3.46
				c-0.75,3.23-1.84,5.19-2.67,5.19c-0.68,0-1.36-0.46-2-1.06c-0.63-0.59-1.38-1.41-1.38-2.14c0-1,1.3-1.66,2.72-3.74
				c0.96-1.4,2.07-3.26,1.6-3.83c-0.47-0.58-1.26,1.24-2.39,2.51c-1.2,1.35-2.6,2.68-3.2,2.68c-0.69,0-1.9-2.19-1.9-3.77
				C136.38,209.04,137.06,208.04,138.42,208.04z M140.91,118.76c0.25-0.47,0.67-0.41,1.49-0.41c0.56,0,1.36-0.13,1.62,0.28
				c0.31,0.49-0.09,1.53-0.46,2.49c-0.4,1.06-0.79,1.92-1.29,1.92c-0.38,0-0.47-0.88-0.79-1.86
				C141.11,119.96,140.6,119.34,140.91,118.76z M152.75,118.64c0.27-0.42,1.07-0.28,1.62-0.28c0.82,0,1.24-0.06,1.49,0.41
				c0.31,0.58-0.19,1.19-0.59,2.42c-0.32,0.99-0.41,1.86-0.79,1.86c-0.49,0-0.89-0.85-1.29-1.92
				C152.84,120.17,152.44,119.12,152.75,118.64z M151.07,118.39c0.54,2.32,1.44,8.12,7.29,8.12c1.36,0,2.05,1,2.05,2.58
				c0,1.58-1.21,3.77-1.9,3.77c-0.6,0-2-1.33-3.2-2.68c-1.13-1.27-1.92-3.09-2.39-2.51c-0.46,0.57,0.64,2.43,1.6,3.83
				c1.42,2.07,2.72,2.74,2.72,3.74c0,0.74-0.75,1.56-1.38,2.14c-0.64,0.6-1.32,1.06-2,1.06c-0.83,0-1.91-1.95-2.67-5.19
				c-0.5-2.15-0.34-3.46-0.92-3.46c-0.44,0-0.71,1.04-0.62,2.92c0.09,2.04,0.35,3.19,1.02,5.22c0.31,0.93,0.75,1.63,0.19,2.17
				c-0.54,0.51-1.45,0.75-2.47,0.75s-1.93-0.23-2.47-0.75c-0.56-0.54-0.12-1.24,0.19-2.17c0.67-2.03,0.93-3.18,1.02-5.22
				c0.09-1.88-0.18-2.92-0.62-2.92c-0.58,0-0.42,1.31-0.92,3.46c-0.75,3.23-1.84,5.19-2.67,5.19c-0.68,0-1.36-0.46-2-1.06
				c-0.63-0.59-1.38-1.41-1.38-2.14c0-1,1.3-1.66,2.72-3.74c0.96-1.4,2.07-3.26,1.6-3.83c-0.47-0.58-1.26,1.24-2.39,2.51
				c-1.2,1.35-2.6,2.68-3.2,2.68c-0.69,0-1.9-2.19-1.9-3.77s0.68-2.58,2.05-2.58c5.85,0,6.75-5.8,7.29-8.12
				c0.43-1.83,0.83-3.47,2.68-3.47C150.24,114.92,150.64,116.56,151.07,118.39z"/>
		</g>
		<path class="st0" d="M59.32,78.25L59.32,78.25L59.32,78.25z"/>
		<polygon class="st0" points="89.23,78.25 89.23,78.25 89.22,78.25 		"/>
		<g>
			<g>
				<path d="M176.66,71.42c0.35,0,0.28-0.33,1.21-0.33c0.93,0,1.86,0.65,3.01,0.65c2.65,0,5.02-2.58,5.02-5.08
					c0-2.29-0.57-3.01-2.77-4.66s-4.24-2.32-4.24-4.36c0-0.73,0.4-2.63,1.99-2.63c1.87,0,2.2,1.99,2.71,3.47
					c0.44,1.28,1.31,0.77,1.28,0.04c-0.04-0.72-0.04-2.76-0.04-3.22s-0.51-0.89-0.76-0.55c-0.17,0.23-0.99,0.17-1.07,0.11
					c-0.63-0.47-1.24-0.57-2.44-0.57c-2.46,0-3.98,2.46-3.98,4.02c0,1.57,0.59,2.84,3.26,4.83c2.67,2,3.39,2.58,3.39,4.33
					c0,1.09-0.42,3.34-2.38,3.34c-1.94,0-2.67-1.82-3.17-3.26c-0.54-1.54-1.52-1.76-1.52-0.21c0,0.91,0,2.63-0.09,3.22
					C175.96,71.15,176.33,71.42,176.66,71.42z"/>
				<path d="M161.18,55.47c0.53,0,1.29,0.29,2.04,2.33c0.27,0.72,0.44,1.23,0.89,1.23c0.44,0,0.49-0.76,0.49-1.23
					s-0.05-2.2-0.05-2.59c0-0.59-0.04-0.72-2.09-0.59c-1.46,0.09-2.49,0.13-3.33,0.13c-0.85,0-1.86-0.04-3.33-0.13
					c-2.04-0.13-2.08,0-2.08,0.59c0,0.39-0.05,2.12-0.05,2.59s0.05,1.23,0.48,1.23c0.46,0,0.63-0.51,0.89-1.23
					c0.76-2.04,1.51-2.33,2.05-2.33c0.53,0,0.69,0.42,0.69,1.52v11.78c-0.02,1.31-0.16,1.35-0.56,1.69
					c-0.41,0.34-0.31,0.94,0.35,0.89s0.91-0.05,1.56-0.05s0.91,0,1.56,0.05c0.66,0.04,0.76-0.55,0.36-0.89
					c-0.41-0.34-0.55-0.38-0.56-1.69V56.99C160.5,55.89,160.65,55.47,161.18,55.47z"/>
				<path d="M163.56,70.5c-0.35,0.34-0.34,0.96,0.16,0.91c0.5-0.04,0.69-0.04,1.18-0.04c0.49,0,0.67,0,1.16,0.04
					c0.49,0.05,0.65-0.46,0.4-0.8c-0.26-0.33-0.69-0.38-0.48-1.69l0.76-2.39c0.2-0.53,1.42-0.34,2.06-0.34
					c0.63,0,2.07-0.24,2.34,0.51l0.53,2.21c0.27,1.31,0.15,1.36-0.18,1.69c-0.31,0.34-0.11,0.85,0.51,0.8
					c0.63-0.04,1.05-0.04,1.68-0.04c0.64,0,0.71,0,1.35,0.04c0.64,0.05,0.55-0.77,0.23-0.99c-0.46-0.34-0.48-0.63-0.79-1.5
					l-3.64-12.88c-0.28-1.07-0.69-1.78-0.94-1.72c-0.79,0.18-1.74,0.39-1.69,0.92l0.06,1.39l-3.69,12.3
					C164.04,70.19,163.92,70.16,163.56,70.5z M167.32,64.18l0.98-3.55c0.58-2,0.95-2.07,1.39,0.14l0.82,3.39
					c0.29,0.84,0.2,1.02-1.39,1.02C167.07,65.17,166.94,65.02,167.32,64.18z"/>
				<path d="M198.09,72.29H196V58.24h2.1c1.6,0,2.91-1.31,2.91-2.92s-1.3-2.92-2.91-2.92H196v-6.66h-19.53
					c-2.88,0-5.46,1.6-6.74,4.03c-1.28-2.43-3.85-4.03-6.73-4.03h-19.8v6.66h-2.09c-1.61,0-2.91,1.31-2.91,2.92
					c0,1.61,1.31,2.92,2.91,2.92h2.09v14.05h-2.09c-1.61,0-2.91,1.31-2.91,2.92s1.31,2.91,2.91,2.91h2.09v7.21h22.98
					c0.77,1.26,2.14,2.11,3.71,2.11c1.58,0,2.95-0.85,3.71-2.11H196v-7.21h2.1c1.6,0,2.91-1.31,2.91-2.91
					C201,73.6,199.7,72.29,198.09,72.29z M188.87,47.37l2.49,2.56v30.23l-2.49-2.22V47.37z M152.14,47.11H163
					c2.83,0,5.3,1.87,6.01,4.55l0.13,0.51h1.18l0.13-0.51c0.71-2.68,3.18-4.55,6.01-4.55h11.04v30.45l-10.71-0.02
					c-2.48,0-4.22,0.43-5.53,1.4c-0.43-0.14-0.89-0.24-1.37-0.24s-0.94,0.1-1.37,0.24c-1.31-0.98-3.06-1.4-5.53-1.4l-10.85,0.02
					L152.14,47.11L152.14,47.11z M150.78,77.94l-2.49,2.22V49.93l2.48-2.56L150.78,77.94z M144.57,83.97v-7.21h-3.45
					c-0.85,0-1.55-0.69-1.55-1.55s0.7-1.55,1.55-1.55h3.45V56.88h-3.45c-0.85,0-1.55-0.7-1.55-1.55c0-0.86,0.7-1.55,1.55-1.55h3.45
					v-6.66h4.56l-2.19,2.26v32.99h18.68c-0.04,0.23-0.07,0.47-0.07,0.71c0,0.31,0.03,0.61,0.09,0.89H144.57z M166.08,81H149.4
					l2.32-2.07L163,78.91c1.91,0,3.21,0.29,4.16,0.79C166.72,80.06,166.36,80.5,166.08,81z M169.9,85.97c-1.6,0-2.9-1.3-2.9-2.9
					s1.3-2.9,2.9-2.9s2.9,1.3,2.9,2.9S171.49,85.97,169.9,85.97z M172.63,79.71c0.96-0.51,2.26-0.79,4.16-0.79l11.13,0.02l2.33,2.07
					H173.7C173.44,80.5,173.07,80.06,172.63,79.71z M198.09,76.76h-3.46v7.21h-20.47c0.06-0.29,0.09-0.59,0.09-0.89
					c0-0.24-0.03-0.48-0.07-0.71h18.54V49.38l-2.2-2.26h4.1v6.66h3.46c0.85,0,1.55,0.7,1.55,1.55c0,0.86-0.69,1.55-1.55,1.55h-3.46
					v16.77h3.46c0.85,0,1.55,0.7,1.55,1.55C199.64,76.06,198.95,76.76,198.09,76.76z"/>
			</g>
			<g>
				<path d="M112.65,70.84c-0.38,0.33-0.28,0.85,0.34,0.8c0.62-0.05,0.86-0.05,1.49-0.05c0.62,0,0.86,0,1.49,0.05
					c0.62,0.04,0.72-0.47,0.33-0.8c-0.38-0.34-0.51-0.38-0.52-1.7V57.36c0.01-1.32,0.14-1.36,0.52-1.7c0.39-0.34,0.29-0.85-0.33-0.8
					c-0.62,0.04-0.86,0.04-1.49,0.04s-0.87,0-1.49-0.04c-0.62-0.05-0.72,0.47-0.34,0.8c0.39,0.34,0.52,0.38,0.53,1.7v11.78
					C113.17,70.45,113.04,70.5,112.65,70.84z"/>
				<path d="M131.78,72.29h-2.09V58.24h2.09c1.61,0,2.91-1.31,2.91-2.92s-1.31-2.92-2.91-2.92h-2.09v-6.66h-15.56
					c-3.06,0-5.7,1.82-6.9,4.44c-1.2-2.62-3.84-4.44-6.9-4.44H80.96v6.66h-2.09c-1.61,0-2.91,1.31-2.91,2.92s1.31,2.92,2.91,2.92
					h2.09v14.05h-2.09c-1.61,0-2.91,1.31-2.91,2.92c0,1.6,1.31,2.91,2.91,2.91h2.09v7.21h22.55c0.77,1.26,2.14,2.11,3.71,2.11
					c1.58,0,2.95-0.85,3.71-2.11h18.74v-7.21h2.09c1.61,0,2.91-1.31,2.91-2.91C134.69,73.6,133.38,72.29,131.78,72.29z M122.1,47.37
					l2.49,2.56v30.23l-2.49-2.22V47.37z M107.91,53.33c0-3.43,2.79-6.22,6.22-6.22h6.61v30.45l-6.61-0.01
					c-2.47,0-4.21,0.43-5.52,1.41c-0.23-0.08-0.45-0.14-0.69-0.17V53.33H107.91z M89.9,47.11h10.42c3.43,0,6.22,2.79,6.22,6.22
					v25.45c-0.24,0.04-0.47,0.1-0.69,0.17c-1.31-0.98-3.05-1.41-5.53-1.41L89.9,77.57V47.11z M88.54,77.94l-2.49,2.22V49.93
					l2.49-2.56V77.94z M82.32,83.97v-7.21h-3.45c-0.86,0-1.55-0.69-1.55-1.55s0.7-1.55,1.55-1.55h3.45V56.88h-3.45
					c-0.86,0-1.55-0.7-1.55-1.55s0.7-1.55,1.55-1.55h3.45v-6.66h4.56l-2.2,2.26v32.99h18.25c-0.04,0.23-0.07,0.47-0.07,0.71
					c0,0.31,0.03,0.61,0.09,0.89H82.32z M103.41,81H87.16l2.33-2.07l10.84-0.02c1.91,0,3.21,0.29,4.16,0.79
					C104.05,80.06,103.69,80.5,103.41,81z M107.23,85.97c-1.6,0-2.9-1.3-2.9-2.9s1.3-2.9,2.9-2.9s2.9,1.3,2.9,2.9
					S108.82,85.97,107.23,85.97z M109.96,79.71c0.96-0.51,2.26-0.79,4.16-0.79l7.03,0.02l2.33,2.07h-12.45
					C110.77,80.5,110.4,80.06,109.96,79.71z M131.78,76.76h-3.45v7.21H111.5c0.06-0.29,0.09-0.59,0.09-0.89
					c0-0.24-0.03-0.48-0.07-0.71h14.44V49.38l-2.2-2.26h4.56v6.66h3.45c0.85,0,1.55,0.7,1.55,1.55s-0.7,1.55-1.55,1.55h-3.45v16.77
					h3.45c0.85,0,1.55,0.7,1.55,1.55C133.33,76.06,132.63,76.76,131.78,76.76z"/>
				<path d="M96.5,69.01l0.02-5.76l0.92,0.1c0.29,0.49,3.47,7.24,3.74,7.71c0.28,0.47,0.43,0.42,0.43,0.42h2.33
					c0.89,0,0.9-0.63,0.74-0.74c-0.25-0.19-0.47-0.4-0.83-0.89s-3.03-5.77-3.22-6.08c-0.19-0.31-0.24-0.42-0.24-0.63
					c0-0.21,0.13-0.49,0.53-0.66c1.43-0.6,2.63-1.82,2.63-3.78c0-2.58-1.45-4.06-5.85-4.06c-1.1,0-3.05-0.05-3.73-0.05
					s-1.27,0.46-0.81,0.85c0.47,0.38,0.51,0.67,0.51,1.23V69c0,1.32-0.38,1.36-0.72,1.7c-0.33,0.34-0.25,0.85,0.3,0.81
					c0.54-0.04,1.18-0.04,1.74-0.04c0.62,0,1.26,0,1.9,0.04c0.63,0.04,0.74-0.56,0.36-0.89C96.87,70.29,96.5,70.33,96.5,69.01z
					 M96.55,56.94c0-1.4,0.95-1.44,1.8-1.32c0.84,0.13,2.25,0.56,2.25,3.31c0,2.76-1.95,3.27-2.84,3.27s-1.19-0.39-1.19-0.81
					l-0.02-2.5C96.55,58.89,96.55,56.94,96.55,56.94z"/>
			</g>
			<g>
				<path d="M46.83,70.58c-0.38,0.34-0.29,0.85,0.34,0.8c0.62-0.04,0.86-0.05,1.48-0.05l6.47-0.01c0.51,0.03,1.48,0.49,1.48-0.52
					v-3.13c0-1.7-0.85-2-1.36,0.04c-0.34,1.35-0.76,2.58-2.84,2.58h-1.35c-0.55,0-0.75-0.21-0.8-0.68c-0.13-1.19-0.13-3.33,0-5.67
					c0.03-0.68,0.34-0.74,1.01-0.74c0.68,0,0.86,0.06,1.06,0.61c0.24,0.64,1.49,1.79,1.49,0v-2.37c0-1.78-1.1-0.51-1.4,0
					c-0.3,0.51-0.46,0.51-1.15,0.51c-0.67,0-0.89-0.13-0.93-0.81c-0.06-1.11-0.13-2.88,0-4.96c0.03-0.46,0.17-0.67,0.72-0.67h1.35
					c2.08,0,2.08,1.4,2.41,2.76c0.34,1.35,1.36,1.01,1.36,0.04v-3.13c0-1.02-0.97-0.55-1.48-0.52h-6.04c-0.62,0-0.86,0-1.48-0.05
					c-0.63-0.04-0.72,0.47-0.34,0.81c0.39,0.34,0.52,0.38,0.53,1.69v11.78C47.36,70.2,47.22,70.24,46.83,70.58z"/>
				<path d="M40.42,55.52c0.35-0.34,0.34-0.96-0.15-0.91c-0.5,0.05-0.69,0.05-1.17,0.05c-0.49,0-0.68,0-1.16-0.05
					c-0.48-0.04-0.64,0.46-0.39,0.81c0.25,0.34,0.68,0.38,0.48,1.69l-2.5,8.15c-0.29,1.03-0.94,1.37-1.22-0.01l-1.72-8.15
					c-0.27-1.31-0.14-1.36,0.18-1.69c0.32-0.34,0.11-0.85-0.51-0.81c-0.62,0.05-0.87,0.05-1.5,0.05c-0.64,0-0.88,0-1.53-0.05
					c-0.64-0.04-0.63,0.46-0.17,0.81c0.46,0.34,0.61,0.38,0.9,1.69l2.97,12.88c0.28,1.07,0.47,1.82,1.17,1.82
					c0.7,0,1.1-0.71,1.38-1.78l3.96-12.92C39.94,55.83,40.06,55.86,40.42,55.52z"/>
				<path d="M69.67,72.29h-2.09V58.24h2.09c1.61,0,2.91-1.31,2.91-2.92s-1.31-2.92-2.91-2.92h-2.09v-6.66H49.82
					c-3.06,0-5.7,1.82-6.9,4.44c-1.2-2.62-3.84-4.44-6.9-4.44H18.27v6.66h-2.09c-1.61,0-2.91,1.31-2.91,2.92s1.31,2.92,2.91,2.92
					h2.09v14.05h-2.09c-1.61,0-2.91,1.31-2.91,2.92c0,1.6,1.31,2.91,2.91,2.91h2.09v7.21h20.94c0.77,1.26,2.14,2.11,3.71,2.11
					s2.95-0.85,3.71-2.11h20.94v-7.21h2.09c1.61,0,2.91-1.31,2.91-2.91C72.59,73.6,71.28,72.29,69.67,72.29z M60,47.37l2.49,2.56
					v30.23L60,77.94V47.37z M43.6,53.33c0-3.43,2.79-6.22,6.22-6.22h8.82v30.45l-8.82-0.02c-2.47,0-4.21,0.43-5.52,1.41
					c-0.23-0.08-0.45-0.14-0.69-0.17V53.33H43.6z M27.21,47.11h8.81c3.43,0,6.22,2.79,6.22,6.22v25.45
					c-0.24,0.04-0.47,0.1-0.69,0.17c-1.31-0.98-3.05-1.41-5.52-1.41l-8.81,0.02V47.11H27.21z M25.85,77.94l-2.49,2.22V49.93
					l2.48-2.56L25.85,77.94z M19.63,83.97v-7.21h-3.46c-0.85,0-1.55-0.69-1.55-1.55s0.7-1.55,1.55-1.55h3.46V56.88h-3.46
					c-0.85,0-1.55-0.7-1.55-1.55s0.7-1.55,1.55-1.55h3.46v-6.66h4.56L22,49.38v32.99h16.64c-0.04,0.23-0.07,0.47-0.07,0.71
					c0,0.31,0.03,0.61,0.09,0.89H19.63z M39.11,81H24.47l2.32-2.07l9.23-0.02c1.91,0,3.21,0.29,4.16,0.79
					C39.75,80.06,39.38,80.5,39.11,81z M42.92,85.97c-1.6,0-2.9-1.3-2.9-2.9s1.3-2.9,2.9-2.9s2.9,1.3,2.9,2.9
					S44.52,85.97,42.92,85.97z M45.66,79.71c0.96-0.51,2.26-0.79,4.16-0.79l9.24,0.02L61.39,81H46.74
					C46.46,80.5,46.1,80.06,45.66,79.71z M69.67,76.76h-3.46v7.21H47.19c0.06-0.29,0.09-0.59,0.09-0.89c0-0.24-0.03-0.48-0.07-0.71
					h16.65V49.38l-2.2-2.26h4.56v6.66h3.46c0.86,0,1.55,0.7,1.55,1.55s-0.7,1.55-1.55,1.55h-3.46v16.77h3.46
					c0.86,0,1.55,0.7,1.55,1.55C71.23,76.06,70.53,76.76,69.67,76.76z"/>
			</g>
		</g>
	</g>
</g>
</svg>
